<?xml version="1.0" standalone="no"?>
<!DOCTYPE svg PUBLIC "-//W3C//DTD SVG 20010904//EN"
 "http://www.w3.org/TR/2001/REC-SVG-20010904/DTD/svg10.dtd">
<svg version="1.0" xmlns="http://www.w3.org/2000/svg"
 width="1080.000000pt" height="256.000000pt" viewBox="0 0 1080.000000 256.000000"
 preserveAspectRatio="xMidYMid meet">

<g transform="translate(0.000000,256.000000) scale(0.100000,-0.100000)"
fill="#000000" stroke="none">
<path d="M8135 2499 c-33 -5 -150 -15 -260 -23 -110 -8 -252 -20 -315 -27 -63
-6 -135 -13 -160 -15 -25 -1 -92 -7 -150 -13 -58 -5 -166 -15 -240 -21 -74 -6
-157 -15 -185 -20 -27 -4 -54 -6 -58 -3 -13 8 -58 -7 -52 -17 8 -13 -1 -13
-24 2 -15 9 -61 7 -205 -7 -102 -10 -186 -23 -186 -28 0 -5 -7 -4 -15 3 -8 6
-20 8 -27 4 -11 -7 -191 -22 -295 -26 -29 -1 -32 -3 -27 -24 4 -15 2 -24 -5
-24 -6 0 -10 3 -10 8 5 30 -2 32 -97 27 -53 -3 -99 -7 -104 -10 -4 -2 -49 -6
-101 -9 -98 -5 -472 -37 -669 -58 -63 -6 -140 -13 -170 -15 -117 -6 -318 -24
-377 -34 -35 -6 -74 -8 -88 -5 -14 4 -34 2 -45 -4 -10 -6 -86 -12 -168 -15
-83 -3 -173 -10 -202 -15 -29 -6 -68 -10 -86 -10 -19 0 -34 -3 -34 -7 0 -5
-39 -9 -88 -9 -137 -3 -411 -23 -474 -35 -31 -6 -63 -9 -71 -6 -20 8 -100 -12
-109 -26 -6 -9 -8 -8 -8 2 0 10 -10 12 -42 7 -24 -4 -97 -9 -163 -12 -66 -3
-136 -9 -155 -15 -19 -5 -71 -9 -114 -9 -63 0 -81 -3 -92 -17 -11 -15 -13 -16
-14 -2 0 13 -9 14 -67 7 -87 -10 -93 -13 -94 -40 l0 -23 -9 23 c-8 19 -16 22
-71 22 l-62 0 8 -52 c4 -29 7 -73 6 -98 -2 -59 18 -233 27 -240 4 -3 8 -48 9
-100 3 -130 52 -663 63 -674 4 -4 4 -22 -1 -39 -5 -17 -5 -33 -1 -36 4 -4 8
-40 9 -81 2 -70 17 -272 30 -400 3 -33 12 -60 22 -68 15 -13 15 -13 -1 -8 -12
3 -18 0 -18 -9 0 -18 -8 -18 165 1 77 8 185 17 239 20 55 3 104 8 109 11 5 3
62 10 126 14 127 9 161 12 361 29 196 16 223 20 243 38 15 14 20 14 27 2 7
-12 29 -12 147 -1 76 7 158 14 183 16 25 2 70 6 100 8 190 17 346 29 415 33
44 2 104 8 134 14 30 5 74 10 97 10 30 0 44 5 48 17 5 13 9 14 15 5 4 -7 21
-13 37 -13 45 -1 156 8 184 15 14 4 122 13 240 22 118 8 231 17 250 19 19 3
67 6 105 9 39 2 130 11 203 20 74 9 158 16 187 16 33 0 55 5 58 13 4 9 8 9 15
-2 6 -9 17 -11 33 -5 26 8 36 9 234 23 224 17 479 41 495 47 8 3 51 7 95 8 44
1 145 9 225 19 80 9 156 17 170 16 14 -1 75 4 135 10 61 6 144 14 185 16 110
7 300 24 335 29 17 3 131 12 255 21 124 9 226 18 228 20 2 2 0 10 -4 17 -5 7
-10 42 -10 78 -1 36 -4 99 -7 140 -15 183 -28 336 -44 485 -9 88 -17 196 -19
239 -1 44 -5 91 -9 104 -3 13 -10 81 -15 150 -5 70 -15 183 -21 252 -6 69 -14
174 -17 235 -8 124 -2 117 -97 104z m-215 -44 c0 -8 -4 -15 -10 -15 -5 0 -7 7
-4 15 4 8 8 15 10 15 2 0 4 -7 4 -15z m157 -117 c5 -7 10 -38 11 -68 1 -30 7
-79 13 -107 6 -29 8 -57 4 -63 -3 -5 -1 -36 4 -67 6 -32 13 -104 16 -161 3
-56 10 -124 15 -152 5 -27 7 -57 4 -65 -3 -8 -1 -52 5 -97 7 -46 14 -117 16
-158 8 -143 42 -501 50 -537 6 -26 -6 -35 -54 -38 -209 -16 -324 -27 -366 -35
-61 -11 -247 -24 -293 -21 -18 2 -54 -2 -80 -8 -40 -8 -213 -25 -392 -36 -89
-6 -307 -25 -400 -35 -151 -16 -329 -32 -410 -36 -128 -8 -313 -23 -360 -29
-67 -10 -91 -12 -250 -24 -80 -7 -210 -18 -290 -26 -80 -8 -215 -19 -300 -25
-85 -6 -198 -15 -250 -20 -137 -15 -425 -40 -565 -50 -66 -4 -127 -10 -135
-14 -8 -3 -87 -11 -175 -17 -88 -6 -205 -15 -260 -20 -55 -5 -129 -10 -165
-12 -118 -7 -233 -18 -345 -32 -60 -8 -184 -19 -275 -25 -91 -5 -210 -15 -265
-21 -164 -18 -146 -26 -151 66 -10 184 -18 230 -37 227 -20 -3 -24 26 -4 33 9
4 10 33 5 123 -13 224 -18 287 -24 312 -5 23 -6 24 -19 7 -9 -12 -15 -14 -20
-7 -8 13 14 42 26 34 6 -3 7 28 4 78 -8 105 -24 188 -36 188 -5 0 -9 9 -9 20
0 11 5 20 11 20 11 0 11 1 -10 230 -7 69 -13 136 -14 150 -2 23 1 25 53 27 30
1 109 8 175 14 66 6 138 12 160 14 101 4 367 27 435 37 41 6 95 12 120 13 103
7 257 18 290 20 19 1 85 7 145 13 61 7 169 16 240 22 72 6 144 12 160 14 17 2
93 9 170 15 77 6 185 15 240 21 55 5 110 10 123 10 13 0 20 4 17 10 -7 11 8
14 18 3 9 -8 116 -5 187 7 30 4 127 14 215 20 88 6 207 16 265 22 58 5 141 12
185 14 44 3 96 9 115 14 19 6 73 10 120 10 47 0 119 5 160 11 81 11 77 10 320
28 91 6 197 16 235 21 89 13 283 29 451 39 71 4 135 10 141 14 6 4 50 9 99 12
157 9 227 15 294 25 36 6 128 14 205 20 200 14 388 30 400 35 18 6 22 5 32 -7z
m-2602 -98 c3 -5 1 -10 -4 -10 -6 0 -11 5 -11 10 0 6 2 10 4 10 3 0 8 -4 11
-10z m-645 -60 c0 -5 -4 -10 -10 -10 -5 0 -10 5 -10 10 0 6 5 10 10 10 6 0 10
-4 10 -10z m260 -10 c0 -5 -4 -10 -10 -10 -5 0 -10 5 -10 10 0 6 5 10 10 10 6
0 10 -4 10 -10z m3120 -6 c0 -8 -4 -12 -10 -9 -5 3 -10 10 -10 16 0 5 5 9 10
9 6 0 10 -7 10 -16z m-3462 -13 c3 -8 -1 -12 -9 -9 -7 2 -15 10 -17 17 -3 8 1
12 9 9 7 -2 15 -10 17 -17z m-758 -36 c0 -8 -2 -15 -4 -15 -2 0 -6 7 -10 15
-3 8 -1 15 4 15 6 0 10 -7 10 -15z m-605 -85 c3 -6 -1 -13 -10 -16 -19 -8 -30
0 -20 15 8 14 22 14 30 1z m-305 -30 c0 -5 -4 -10 -10 -10 -5 0 -10 5 -10 10
0 6 5 10 10 10 6 0 10 -4 10 -10z m-400 -10 c0 -5 -2 -10 -4 -10 -3 0 -8 5
-11 10 -3 6 -1 10 4 10 6 0 11 -4 11 -10z m-115 -50 c3 -5 1 -10 -4 -10 -6 0
-11 5 -11 10 0 6 2 10 4 10 3 0 8 -4 11 -10z m5674 -204 c8 -9 8 -16 2 -20 -6
-4 -15 3 -21 14 -12 23 2 27 19 6z m61 -231 c0 -8 -4 -15 -10 -15 -5 0 -10 7
-10 15 0 8 5 15 10 15 6 0 10 -7 10 -15z m-6020 -119 c0 -16 -18 -31 -27 -22
-8 8 5 36 17 36 5 0 10 -6 10 -14z m6004 -42 c3 -8 2 -12 -4 -9 -6 3 -10 10
-10 16 0 14 7 11 14 -7z m50 -279 c3 -9 0 -15 -8 -15 -8 0 -16 7 -20 15 -3 9
0 15 8 15 8 0 16 -7 20 -15z m-19 -55 c-3 -5 -11 -10 -16 -10 -6 0 -7 5 -4 10
3 6 11 10 16 10 6 0 7 -4 4 -10z m-325 -280 c0 -5 -5 -10 -11 -10 -5 0 -7 5
-4 10 3 6 8 10 11 10 2 0 4 -4 4 -10z m-450 -80 c0 -5 -5 -10 -11 -10 -5 0 -7
5 -4 10 3 6 8 10 11 10 2 0 4 -4 4 -10z m-520 -8 c0 -14 -11 -21 -26 -15 -21
8 -17 23 6 23 11 0 20 -4 20 -8z m-4676 -38 c8 -20 -1 -34 -20 -34 -8 0 -14 8
-14 18 0 33 23 44 34 16z m4286 -4 c0 -5 -4 -10 -10 -10 -5 0 -10 5 -10 10 0
6 5 10 10 10 6 0 10 -4 10 -10z m-1400 -120 c0 -5 -5 -10 -11 -10 -5 0 -7 5
-4 10 3 6 8 10 11 10 2 0 4 -4 4 -10z m128 -20 c-13 -21 -28 -27 -28 -10 0 5
8 14 18 19 23 14 24 14 10 -9z m-1555 -60 c-7 -27 -22 -35 -29 -16 -7 18 13
49 26 41 5 -3 6 -14 3 -25z m877 20 c0 -5 -2 -10 -4 -10 -3 0 -8 5 -11 10 -3
6 -1 10 4 10 6 0 11 -4 11 -10z m92 -22 c-7 -7 -12 -8 -12 -2 0 14 12 26 19
19 2 -3 -1 -11 -7 -17z m-2352 -58 c-6 -11 -13 -20 -15 -20 -3 0 -5 9 -5 20 0
11 7 20 15 20 13 0 14 -4 5 -20z m-43 -126 c-3 -3 -12 -4 -19 -1 -8 3 -5 6 6
6 11 1 17 -2 13 -5z"/>
<path d="M7950 2299 c-76 -9 -314 -31 -350 -31 -14 0 -63 -4 -110 -9 -47 -5
-150 -13 -230 -19 -80 -6 -158 -14 -175 -20 -16 -5 -91 -12 -165 -15 -170 -8
-190 -10 -388 -29 -89 -9 -184 -16 -210 -16 -69 0 -94 -9 -87 -30 9 -29 -14
-34 -25 -5 -13 34 -47 31 -42 -4 3 -16 -1 -22 -10 -19 -7 3 -12 12 -12 21 2
20 31 21 -601 -34 -66 -5 -163 -14 -215 -19 -52 -5 -167 -14 -254 -20 -88 -6
-163 -13 -167 -16 -4 -2 -53 -7 -110 -10 -56 -3 -109 -9 -118 -13 -9 -5 -65
-10 -126 -10 -60 -1 -119 -4 -130 -6 -20 -5 -412 -42 -515 -49 -85 -6 -296
-26 -385 -36 -44 -6 -114 -10 -155 -10 -41 0 -113 -7 -160 -14 -47 -8 -115
-15 -150 -15 -79 0 -170 -11 -170 -20 0 -4 -26 -7 -57 -7 -32 0 -125 -6 -208
-13 -82 -7 -179 -15 -215 -16 l-65 -2 3 -69 c2 -38 8 -105 14 -149 5 -44 13
-121 17 -171 4 -55 12 -98 21 -109 9 -11 10 -19 3 -23 -6 -4 -8 -30 -5 -64 3
-45 7 -55 19 -51 12 5 14 1 8 -18 -4 -13 -12 -27 -17 -30 -6 -4 -5 -21 1 -46
6 -21 10 -59 9 -84 -2 -53 20 -303 32 -377 5 -28 7 -59 4 -67 -4 -9 0 -15 10
-15 9 0 16 -4 16 -10 0 -5 -7 -10 -15 -10 -11 0 -14 -7 -11 -22 3 -13 8 -40
11 -60 3 -21 9 -37 13 -35 9 3 11 -14 4 -31 -4 -11 -6 -11 -14 0 -8 10 -9 10
-5 -2 2 -8 13 -14 23 -12 10 2 84 9 164 17 80 8 179 19 220 24 41 6 109 13
150 16 146 11 160 15 160 41 0 15 6 24 15 24 18 0 18 -5 5 -30 -13 -24 5 -31
56 -20 34 8 240 27 384 36 25 2 92 8 150 14 58 6 141 13 185 15 44 3 98 7 120
10 53 7 227 22 515 46 413 33 474 41 483 55 10 17 31 18 24 2 -5 -15 35 -14
233 7 74 8 207 19 295 25 88 6 203 15 255 20 166 18 441 42 565 50 66 4 127
10 135 14 16 6 243 24 405 32 55 3 112 10 127 16 15 5 35 8 43 4 9 -3 57 -1
108 5 51 6 108 10 127 9 19 0 58 4 85 9 28 5 115 14 195 20 80 6 204 16 275
22 72 5 148 11 170 13 l40 2 -3 65 c-2 35 -10 127 -18 204 -8 77 -19 201 -24
275 -4 74 -15 200 -24 280 -18 169 -45 490 -49 570 -2 63 -1 63 -107 49z
m-1051 -128 c16 -12 20 -20 12 -25 -6 -4 -14 0 -17 9 -5 11 -10 13 -19 5 -15
-13 -30 3 -20 20 9 14 16 12 44 -9z m61 -49 c0 -13 -12 -22 -22 -16 -10 6 -1
24 13 24 5 0 9 -4 9 -8z m261 -41 c-7 -12 -16 -21 -21 -21 -14 0 -12 34 2 48
18 18 32 -2 19 -27z m-1151 9 c0 -5 -4 -10 -10 -10 -5 0 -10 5 -10 10 0 6 5
10 10 10 6 0 10 -4 10 -10z m660 -40 c0 -5 -4 -10 -10 -10 -5 0 -7 -7 -4 -15
4 -9 0 -15 -10 -15 -19 0 -20 4 -4 30 14 21 28 26 28 10z m900 -20 c0 -5 -7
-10 -15 -10 -8 0 -15 5 -15 10 0 6 7 10 15 10 8 0 15 -4 15 -10z m-1902 -19
c3 -8 -1 -12 -9 -9 -7 2 -15 10 -17 17 -3 8 1 12 9 9 7 -2 15 -10 17 -17z
m342 -11 c0 -21 -15 -27 -25 -10 -7 12 2 30 16 30 5 0 9 -9 9 -20z m-312 -42
c-4 -27 -28 -36 -28 -10 0 20 8 32 22 32 5 0 8 -10 6 -22z m1192 12 c0 -5 -4
-10 -10 -10 -5 0 -10 5 -10 10 0 6 5 10 10 10 6 0 10 -4 10 -10z m-565 -23 c0
-26 -20 -25 -23 2 -3 16 1 22 10 19 7 -3 13 -12 13 -21z m1565 -11 c0 -18 3
-54 6 -80 l7 -46 -57 0 c-31 0 -56 5 -56 10 0 6 -7 10 -15 10 -8 0 -15 -6 -15
-14 0 -8 -5 -16 -11 -18 -7 -2 -7 -39 0 -123 6 -66 18 -201 26 -300 8 -99 17
-191 19 -205 5 -28 -18 -68 -29 -50 -4 7 -33 8 -86 4 l-79 -7 0 45 c0 60 -10
109 -21 102 -5 -3 -9 2 -9 10 0 9 5 16 11 16 8 0 10 15 5 48 -17 119 -18 194
-5 204 11 8 11 9 -2 5 -20 -6 -66 18 -50 27 6 4 16 4 21 1 12 -7 13 22 3 130
l-6 77 -82 -6 -82 -7 0 28 c0 15 -3 51 -7 79 l-8 51 83 7 c46 4 110 9 142 13
51 5 57 4 57 -13 1 -18 1 -18 16 1 15 20 66 29 182 33 41 2 42 2 42 -32z
m-576 -33 c2 -10 6 -45 8 -78 l3 -60 -40 -3 c-90 -5 -105 -11 -106 -40 -2 -25
-2 -25 -6 -3 -3 13 0 28 6 34 14 14 14 54 1 62 -5 3 -10 -3 -10 -14 0 -11 -5
-23 -10 -26 -6 -4 -8 -11 -4 -16 3 -5 2 -9 -3 -8 -4 1 -25 -1 -45 -5 -42 -9
-43 -14 -32 -113 7 -52 7 -53 40 -53 20 0 34 -5 34 -12 1 -9 5 -7 13 3 8 11
37 18 88 23 l76 7 7 -47 c3 -26 6 -61 6 -79 l0 -33 -102 -7 c-57 -3 -111 -9
-120 -11 -20 -6 -23 -46 -11 -142 6 -52 7 -54 35 -50 21 3 28 0 28 -11 0 -14
2 -14 9 -2 11 17 20 19 129 28 l82 6 0 -76 c0 -88 8 -82 -122 -91 -50 -4 -79
-2 -84 5 -5 8 -9 8 -14 0 -4 -7 -51 -16 -106 -22 -54 -5 -108 -11 -120 -14
-20 -4 -21 -1 -16 46 3 32 1 49 -6 47 -5 -2 -10 2 -10 7 0 6 4 9 8 8 5 -2 7
12 5 30 -6 43 -23 257 -23 282 0 11 -2 38 -5 60 -3 22 -11 100 -18 173 -17
182 -19 178 113 187 57 4 132 11 168 15 117 13 148 12 154 -7z m-1294 -13 c0
-5 -4 -10 -10 -10 -5 0 -10 5 -10 10 0 6 5 10 10 10 6 0 10 -4 10 -10z m424
-21 c-3 -5 -10 -7 -15 -3 -5 3 -7 10 -3 15 3 5 10 7 15 3 5 -3 7 -10 3 -15z
m-2674 1 c0 -5 -7 -10 -16 -10 -8 0 -12 5 -9 10 3 6 10 10 16 10 5 0 9 -4 9
-10z m395 -10 c-3 -5 -11 -10 -16 -10 -6 0 -7 5 -4 10 3 6 11 10 16 10 6 0 7
-4 4 -10z m137 -15 c0 -5 -5 -11 -11 -13 -6 -2 -11 4 -11 13 0 9 5 15 11 13 6
-2 11 -8 11 -13z m2371 -12 c15 -7 27 -17 27 -22 0 -5 9 -11 19 -14 29 -7 63
-83 69 -154 6 -74 -16 -142 -54 -172 l-24 -19 34 -26 c37 -28 66 -96 66 -155
0 -20 6 -48 14 -63 8 -15 10 -30 5 -35 -5 -5 -5 -32 0 -63 5 -30 8 -56 6 -58
-1 -1 -41 -6 -89 -10 -58 -5 -90 -4 -94 3 -4 5 -10 37 -14 70 -24 212 -35 245
-81 245 -14 0 -17 5 -13 18 6 16 5 16 -8 0 -7 -10 -23 -18 -35 -18 -19 0 -22
-4 -17 -27 3 -16 7 -67 8 -115 3 -78 5 -85 19 -72 17 15 29 10 29 -13 0 -7 -8
-13 -19 -13 -16 0 -17 -6 -13 -49 l4 -49 -43 -4 c-25 -3 -47 0 -51 6 -5 7 -8
7 -8 -1 0 -21 -76 -17 -85 5 -4 9 -14 100 -23 202 -11 133 -19 187 -29 193
-11 7 -12 12 -2 23 11 14 7 97 -17 322 -4 40 -2 53 9 58 28 10 292 31 337 26
25 -3 57 -11 73 -19z m-1243 9 c0 -13 -12 -22 -22 -16 -10 6 -1 24 13 24 5 0
9 -4 9 -8z m-2570 -41 c0 -20 -25 -47 -33 -34 -7 12 11 53 23 53 5 0 10 -8 10
-19z m1840 4 c0 -8 -7 -15 -15 -15 -8 0 -15 7 -15 15 0 8 7 15 15 15 8 0 15
-7 15 -15z m1308 -5 c2 -4 11 -6 21 -3 10 3 37 -7 59 -21 43 -27 88 -104 99
-169 6 -42 5 -42 -113 -51 l-72 -5 -5 36 c-8 46 -33 73 -68 73 -40 0 -60 -36
-67 -115 -2 -35 -8 -62 -13 -60 -12 8 -20 -11 -13 -30 5 -12 9 -13 14 -5 10
16 17 -19 25 -120 7 -89 31 -178 52 -202 18 -20 50 -23 73 -7 11 8 12 12 3 16
-20 8 -15 23 7 23 17 0 20 7 20 39 0 44 -12 39 138 56 49 5 52 4 53 -17 6
-125 -60 -232 -160 -262 -41 -12 -47 -12 -53 3 -6 14 -7 13 -7 -3 -1 -17 -8
-18 -75 -14 -123 8 -186 66 -226 209 -23 83 -46 309 -35 336 4 10 7 30 6 46
-3 29 11 81 37 137 16 34 16 34 23 10 6 -25 6 -25 13 5 11 46 19 57 62 79 61
32 192 43 202 16z m-447 -110 c3 -41 5 -76 5 -77 -1 -1 -58 -8 -127 -14 -68
-6 -126 -13 -128 -15 -2 -2 0 -38 4 -80 l7 -77 91 7 c51 4 106 9 123 12 30 6
31 5 38 -42 3 -26 6 -61 6 -79 0 -36 11 -33 -172 -51 l-68 -6 0 -42 c0 -22 3
-65 7 -95 l6 -53 86 6 c47 4 110 9 139 13 l52 5 0 -68 c0 -38 -4 -74 -8 -80
-4 -7 -40 -15 -79 -19 -40 -4 -73 -12 -73 -17 0 -7 -5 -7 -13 1 -10 7 -38 8
-98 1 -101 -12 -179 -13 -180 -2 -1 4 -3 30 -6 57 -2 28 -9 101 -15 164 -8 85
-8 118 0 132 15 23 15 29 2 29 -5 0 -16 -12 -23 -26 -10 -18 -16 -23 -22 -15
-4 7 0 20 10 30 14 17 15 32 5 147 -6 71 -15 131 -21 132 -12 5 -12 32 0 32 5
0 6 29 4 64 l-6 63 32 5 c33 5 36 2 22 -21 -11 -17 -3 -43 10 -35 6 3 7 14 4
24 -10 30 4 35 126 46 73 6 76 5 82 -16 7 -25 27 -18 27 10 0 16 9 20 53 23
97 7 91 11 98 -73z m-581 50 c0 -5 -4 -10 -10 -10 -5 0 -10 5 -10 10 0 6 5 10
10 10 6 0 10 -4 10 -10z m-1590 -9 c0 -12 -28 -22 -34 -12 -3 5 -3 11 1 15 9
9 33 7 33 -3z m1160 -11 c0 -5 -4 -10 -10 -10 -5 0 -10 5 -10 10 0 6 5 10 10
10 6 0 10 -4 10 -10z m360 -34 c53 -26 99 -93 107 -154 6 -47 7 -46 -108 -57
l-66 -6 -7 28 c-12 49 -34 73 -66 73 -32 0 -60 -31 -60 -67 0 -46 20 -68 100
-105 71 -33 78 -39 73 -60 -6 -22 -5 -22 14 -6 19 17 21 17 65 -11 67 -43 100
-104 106 -197 8 -127 -45 -211 -156 -248 -54 -19 -169 -21 -224 -4 -55 16
-121 82 -115 114 2 15 0 24 -8 24 -13 0 -25 30 -25 62 0 17 5 18 136 33 50 5
52 5 57 -23 9 -45 44 -82 78 -82 41 0 69 32 69 79 0 54 -31 88 -117 128 -40
18 -73 38 -73 44 0 6 -7 8 -16 5 -9 -3 -25 4 -38 17 -12 12 -29 21 -36 20 -9
-2 -26 20 -45 58 -25 50 -30 72 -30 132 0 61 5 79 28 119 34 56 82 88 157 105
70 15 143 8 200 -21z m-1603 -12 c-9 -9 -28 6 -21 18 4 6 10 6 17 -1 6 -6 8
-13 4 -17z m-723 -5 c-3 -5 -10 -7 -15 -3 -5 3 -7 10 -3 15 3 5 10 7 15 3 5
-3 7 -10 3 -15z m1176 -4 c0 -3 -5 -14 -12 -25 -7 -10 -9 -22 -6 -26 4 -3 52
-1 108 5 211 23 285 10 344 -60 46 -54 59 -96 60 -189 1 -76 -2 -90 -27 -133
-16 -26 -38 -52 -50 -58 -12 -5 -30 -15 -40 -21 -14 -11 -20 -10 -28 2 -9 12
-10 12 -5 -4 5 -15 2 -17 -14 -13 -11 3 -20 2 -20 -3 0 -4 -27 -10 -60 -14
l-60 -7 7 -62 c3 -35 12 -65 19 -70 17 -10 18 -37 3 -37 -9 0 -10 -21 -6 -74
l7 -75 -58 -6 c-145 -15 -131 -16 -136 18 -3 18 -12 115 -21 217 -8 102 -18
213 -21 248 -5 46 -3 62 6 62 9 0 8 7 -4 24 -12 19 -17 58 -20 160 -2 74 -1
138 2 141 7 6 32 7 32 0z m180 -5 c0 -5 -7 -10 -15 -10 -8 0 -15 5 -15 10 0 6
7 10 15 10 8 0 15 -4 15 -10z m-310 -15 c0 -8 -4 -15 -10 -15 -5 0 -10 7 -10
15 0 8 5 15 10 15 6 0 10 -7 10 -15z m610 -15 c0 -5 -4 -10 -10 -10 -5 0 -10
5 -10 10 0 6 5 10 10 10 6 0 10 -4 10 -10z m-1060 -15 c10 -12 10 -15 -3 -15
-8 0 -17 7 -21 15 -3 8 -2 15 3 15 5 0 14 -7 21 -15z m-562 -37 c-5 -15 -23
-11 -26 6 -2 11 2 14 13 10 9 -4 14 -11 13 -16z m1892 12 c0 -5 -4 -10 -10
-10 -5 0 -10 5 -10 10 0 6 5 10 10 10 6 0 10 -4 10 -10z m-1011 -33 c51 -34
87 -82 111 -148 16 -46 16 -55 4 -62 -8 -4 -14 -15 -14 -24 0 -12 3 -13 14 -4
20 17 22 9 36 -103 22 -169 0 -318 -56 -393 -31 -41 -114 -81 -185 -89 -119
-14 -211 41 -263 156 -27 61 -56 186 -57 252 0 44 -17 102 -18 66 -1 -10 -5
-18 -11 -18 -5 0 -8 15 -7 33 2 17 9 31 15 30 11 -3 14 12 27 107 3 25 17 69
31 98 46 94 125 134 256 129 63 -3 84 -8 117 -30z m1561 -11 c0 -16 -18 -31
-27 -22 -8 8 5 36 17 36 5 0 10 -6 10 -14z m1818 -9 c2 -10 -3 -17 -12 -17
-10 0 -16 9 -16 21 0 24 23 21 28 -4z m-3854 -9 c3 -13 7 -49 8 -80 3 -55 2
-57 -26 -62 -16 -3 -50 -6 -77 -6 -63 0 -62 14 -34 -257 5 -40 12 -73 18 -73
6 0 7 -15 4 -37 -4 -20 -2 -95 4 -166 6 -70 9 -131 5 -134 -5 -5 -178 -24
-182 -20 -1 1 -9 81 -18 177 -9 96 -21 231 -27 300 -7 69 -13 136 -14 150 -1
14 -3 28 -3 32 -1 3 -37 4 -80 1 l-79 -6 -6 39 c-4 22 -7 56 -7 76 0 44 -5 43
205 58 83 6 158 14 168 17 16 4 18 1 12 -19 l-6 -23 18 22 c11 14 32 23 58 26
22 2 43 4 47 5 4 1 10 -8 12 -20z m4366 17 c0 -11 -24 -55 -30 -55 -4 0 -5 14
-2 30 2 17 10 30 18 30 8 0 14 -2 14 -5z m-1790 -25 c0 -5 -5 -10 -11 -10 -5
0 -7 5 -4 10 3 6 8 10 11 10 2 0 4 -4 4 -10z m499 -7 c-7 -10 -15 -20 -16 -22
-2 -2 -3 5 -3 17 0 14 6 22 16 22 14 0 15 -3 3 -17z m-2999 -37 c0 -15 -18
-31 -26 -23 -7 7 7 37 17 37 5 0 9 -6 9 -14z m2928 -12 c-7 -15 -14 -21 -16
-15 -5 16 5 41 17 41 7 0 6 -10 -1 -26z m-104 -53 c3 -5 -1 -22 -9 -37 -8 -16
-15 -26 -16 -21 -1 9 -1 55 0 62 2 8 19 6 25 -4z m-3544 -17 c0 -8 -5 -12 -10
-9 -6 4 -8 11 -5 16 9 14 15 11 15 -7z m5140 6 c0 -5 -4 -10 -10 -10 -5 0 -10
5 -10 10 0 6 5 10 10 10 6 0 10 -4 10 -10z m-191 -42 c1 -5 -6 -8 -14 -8 -16
0 -19 9 -8 36 6 16 7 16 14 -2 4 -10 8 -22 8 -26z m-489 7 c0 -8 -7 -15 -15
-15 -8 0 -15 7 -15 15 0 8 7 15 15 15 8 0 15 -7 15 -15z m612 0 c0 -5 -5 -11
-11 -13 -6 -2 -11 4 -11 13 0 9 5 15 11 13 6 -2 11 -8 11 -13z m-5032 -20 c0
-8 -4 -15 -10 -15 -5 0 -10 7 -10 15 0 8 5 15 10 15 6 0 10 -7 10 -15z m3780
-10 c0 -16 -6 -25 -15 -25 -8 0 -15 2 -15 4 0 2 -3 12 -7 22 -5 13 -3 16 10
11 9 -3 17 -2 17 3 0 6 2 10 5 10 3 0 5 -11 5 -25z m1050 -43 c0 -13 -12 -22
-22 -16 -10 6 -1 24 13 24 5 0 9 -4 9 -8z m-684 -22 c21 -8 25 -13 15 -23 -9
-9 -14 -9 -20 1 -5 8 -12 13 -17 12 -5 -1 -10 3 -12 9 -5 14 0 14 34 1z
m-3626 -31 c0 -10 -4 -19 -10 -19 -5 0 -10 12 -10 26 0 14 4 23 10 19 6 -3 10
-15 10 -26z m-370 0 c0 -24 -23 -21 -28 4 -2 10 3 17 12 17 10 0 16 -9 16 -21z
m2090 -20 c0 -12 -27 -11 -35 1 -11 17 5 32 21 19 8 -6 14 -15 14 -20z m1330
11 c0 -11 -4 -20 -10 -20 -5 0 -10 9 -10 20 0 11 5 20 10 20 6 0 10 -9 10 -20z
m-3010 -15 c0 -8 -4 -15 -10 -15 -5 0 -10 7 -10 15 0 8 5 15 10 15 6 0 10 -7
10 -15z m2420 -9 c0 -16 -18 -31 -27 -22 -8 8 5 36 17 36 5 0 10 -6 10 -14z
m-667 -10 c3 -8 3 -17 0 -20 -7 -7 -33 13 -33 25 0 15 27 10 33 -5z m757 -22
c0 -8 -5 -12 -10 -9 -6 4 -8 11 -5 16 9 14 15 11 15 -7z m1960 -14 c0 -11 -7
-20 -15 -20 -8 0 -15 9 -15 20 0 11 7 20 15 20 8 0 15 -9 15 -20z m-3200 -39
c0 -20 -13 -35 -23 -25 -7 8 4 44 14 44 5 0 9 -9 9 -19z m1170 9 c0 -5 -2 -10
-4 -10 -3 0 -8 5 -11 10 -3 6 -1 10 4 10 6 0 11 -4 11 -10z m120 -11 c0 -5 -7
-9 -15 -9 -15 0 -20 12 -9 23 8 8 24 -1 24 -14z m-976 -10 c-3 -5 -10 -7 -15
-3 -5 3 -7 10 -3 15 3 5 10 7 15 3 5 -3 7 -10 3 -15z m3264 -21 c-6 -18 -28
-21 -28 -4 0 9 7 16 16 16 9 0 14 -5 12 -12z m-3648 -18 c0 -11 -7 -20 -15
-20 -13 0 -14 4 -5 20 6 11 13 20 15 20 3 0 5 -9 5 -20z m2060 10 c0 -5 -7
-10 -15 -10 -8 0 -15 5 -15 10 0 6 7 10 15 10 8 0 15 -4 15 -10z m-557 -55 c8
-19 -13 -31 -23 -14 -9 14 -4 29 10 29 4 0 10 -7 13 -15z m1917 -6 c0 -5 -4
-9 -10 -9 -5 0 -10 7 -10 16 0 8 5 12 10 9 6 -3 10 -10 10 -16z m-15 -20 c10
-15 -1 -23 -20 -15 -9 3 -13 10 -10 16 8 13 22 13 30 -1z m-1105 -9 c0 -5 -4
-10 -10 -10 -5 0 -10 5 -10 10 0 6 5 10 10 10 6 0 10 -4 10 -10z m455 -18 c0
-18 -20 -15 -23 4 -3 10 1 15 10 12 7 -3 13 -10 13 -16z m-735 -6 c0 -3 -4 -8
-10 -11 -5 -3 -10 -1 -10 4 0 6 5 11 10 11 6 0 10 -2 10 -4z m160 -11 c7 -9
10 -18 7 -21 -10 -11 -37 5 -37 21 0 19 14 19 30 0z m890 -36 c0 -10 -4 -19
-10 -19 -5 0 -10 12 -10 26 0 14 4 23 10 19 6 -3 10 -15 10 -26z m-3043 -5
c-9 -9 -28 6 -21 18 4 6 10 6 17 -1 6 -6 8 -13 4 -17z m835 -16 c-15 -15 -26
-4 -18 18 5 13 9 15 18 6 9 -9 9 -15 0 -24z m1408 12 c0 -5 -4 -10 -10 -10 -5
0 -10 5 -10 10 0 6 5 10 10 10 6 0 10 -4 10 -10z m-3800 -10 c0 -5 -4 -10 -10
-10 -5 0 -10 5 -10 10 0 6 5 10 10 10 6 0 10 -4 10 -10z m2484 -6 c8 -21 3
-26 -18 -18 -9 3 -16 12 -16 20 0 19 26 18 34 -2z m276 9 c-1 -18 -18 -35 -24
-24 -4 6 -4 16 -1 21 7 12 25 13 25 3z m990 -3 c0 -5 -4 -10 -10 -10 -5 0 -10
5 -10 10 0 6 5 10 10 10 6 0 10 -4 10 -10z m-2260 -25 c0 -8 -4 -15 -9 -15
-13 0 -22 16 -14 24 11 11 23 6 23 -9z m105 6 c3 -5 1 -12 -5 -16 -5 -3 -10 1
-10 9 0 18 6 21 15 7z m1911 -18 c-10 -10 -19 5 -10 18 6 11 8 11 12 0 2 -7 1
-15 -2 -18z m-1806 -3 c0 -11 -7 -20 -15 -20 -27 0 -18 30 13 39 1 1 2 -8 2
-19z m2595 10 c3 -5 -1 -10 -10 -10 -9 0 -13 5 -10 10 3 6 8 10 10 10 2 0 7
-4 10 -10z m-1470 -20 c3 -5 -1 -10 -9 -10 -9 0 -16 5 -16 10 0 6 4 10 9 10 6
0 13 -4 16 -10z m389 -30 c-14 -14 -38 5 -30 26 6 16 8 16 23 1 11 -11 14 -20
7 -27z m-794 14 c0 -8 -4 -12 -10 -9 -5 3 -10 10 -10 16 0 5 5 9 10 9 6 0 10
-7 10 -16z m-890 -4 c0 -5 -4 -10 -10 -10 -5 0 -10 5 -10 10 0 6 5 10 10 10 6
0 10 -4 10 -10z m1000 0 c0 -5 -4 -10 -10 -10 -5 0 -10 5 -10 10 0 6 5 10 10
10 6 0 10 -4 10 -10z m-2500 -26 c0 -8 -4 -14 -10 -14 -5 0 -10 2 -10 4 0 2
-3 12 -6 20 -5 12 -2 15 10 10 9 -3 16 -12 16 -20z m1603 1 c-6 -16 -16 -19
-26 -8 -9 8 13 34 24 28 4 -3 6 -12 2 -20z m2347 15 c0 -5 -7 -10 -15 -10 -8
0 -15 5 -15 10 0 6 7 10 15 10 8 0 15 -4 15 -10z m-1520 -35 c0 -8 -4 -15 -10
-15 -5 0 -10 7 -10 15 0 8 5 15 10 15 6 0 10 -7 10 -15z m-340 -5 c0 -5 -4
-10 -10 -10 -5 0 -10 5 -10 10 0 6 5 10 10 10 6 0 10 -4 10 -10z m-1093 -37
c-3 -10 -5 -4 -5 12 0 17 2 24 5 18 2 -7 2 -21 0 -30z m2118 27 c3 -5 -1 -10
-9 -10 -9 0 -16 5 -16 10 0 6 4 10 9 10 6 0 13 -4 16 -10z m-1065 -9 c0 -6 -4
-13 -10 -16 -5 -3 -10 1 -10 9 0 9 5 16 10 16 6 0 10 -4 10 -9z m940 -11 c0
-5 -4 -10 -10 -10 -5 0 -10 5 -10 10 0 6 5 10 10 10 6 0 10 -4 10 -10z m-340
-26 c0 -8 -7 -14 -15 -14 -15 0 -21 21 -9 33 10 9 24 -2 24 -19z m-2620 -4 c0
-11 -7 -20 -15 -20 -15 0 -21 21 -8 33 12 13 23 7 23 -13z m1220 -5 c0 -8 -4
-15 -10 -15 -5 0 -10 7 -10 15 0 8 5 15 10 15 6 0 10 -7 10 -15z m640 -25 c0
-5 -4 -10 -10 -10 -5 0 -10 5 -10 10 0 6 5 10 10 10 6 0 10 -4 10 -10z m258
-12 c-6 -18 -28 -21 -28 -4 0 9 7 16 16 16 9 0 14 -5 12 -12z m-1891 -35 c-3
-10 -5 -4 -5 12 0 17 2 24 5 18 2 -7 2 -21 0 -30z m1493 21 c0 -8 -5 -12 -10
-9 -6 4 -8 11 -5 16 9 14 15 11 15 -7z m-1005 -4 c3 -5 1 -10 -4 -10 -6 0 -11
5 -11 10 0 6 2 10 4 10 3 0 8 -4 11 -10z m1705 -7 c0 -5 -4 -15 -10 -23 -11
-18 -25 -7 -17 15 6 15 27 21 27 8z m-2685 -22 c3 -5 1 -12 -5 -16 -5 -3 -10
1 -10 9 0 18 6 21 15 7z m1523 -10 c3 -8 -1 -12 -9 -9 -7 2 -15 10 -17 17 -3
8 1 12 9 9 7 -2 15 -10 17 -17z m-695 -17 c-4 -10 -9 -12 -15 -6 -12 12 -1 35
12 27 5 -3 6 -13 3 -21z m-93 1 c0 -8 -7 -15 -15 -15 -16 0 -20 12 -8 23 11
12 23 8 23 -8z m250 -5 c0 -5 -4 -10 -10 -10 -5 0 -10 5 -10 10 0 6 5 10 10
10 6 0 10 -4 10 -10z m-940 -31 c0 -5 -7 -9 -15 -9 -15 0 -20 12 -9 23 8 8 24
-1 24 -14z m335 11 c-3 -5 -10 -10 -16 -10 -5 0 -9 5 -9 10 0 6 7 10 16 10 8
0 12 -4 9 -10z m1175 -38 c0 -13 -12 -22 -22 -16 -10 6 -1 24 13 24 5 0 9 -4
9 -8z m-1362 -75 c2 -10 -3 -17 -12 -17 -10 0 -16 9 -16 21 0 24 23 21 28 -4z
m367 0 c0 -26 -20 -25 -23 2 -3 16 1 22 10 19 7 -3 13 -12 13 -21z m45 -27 c0
-5 -7 -10 -15 -10 -8 0 -15 5 -15 10 0 6 7 10 15 10 8 0 15 -4 15 -10z"/>
<path d="M7697 1903 c-4 -3 -7 -13 -7 -22 1 -13 3 -13 11 2 11 19 8 33 -4 20z"/>
<path d="M7781 1884 c0 -11 3 -14 6 -6 3 7 2 16 -1 19 -3 4 -6 -2 -5 -13z"/>
<path d="M7490 1874 c0 -8 5 -12 10 -9 6 3 10 10 10 16 0 5 -4 9 -10 9 -5 0
-10 -7 -10 -16z"/>
<path d="M7531 1834 c0 -11 3 -14 6 -6 3 7 2 16 -1 19 -3 4 -6 -2 -5 -13z"/>
<path d="M7736 1822 c-3 -6 -1 -14 5 -17 15 -10 25 3 12 16 -7 7 -13 7 -17 1z"/>
<path d="M7540 1799 c0 -5 5 -7 10 -4 6 3 10 8 10 11 0 2 -4 4 -10 4 -5 0 -10
-5 -10 -11z"/>
<path d="M7683 1554 c-3 -8 -1 -20 6 -27 8 -8 11 -8 11 0 0 6 3 18 6 27 3 9 1
16 -5 16 -7 0 -14 -7 -18 -16z"/>
<path d="M6962 1695 c0 -16 2 -22 5 -12 2 9 2 23 0 30 -3 6 -5 -1 -5 -18z"/>
<path d="M7127 1327 c-4 -10 -7 -26 -7 -35 1 -15 2 -15 11 1 6 10 9 25 7 35
-3 16 -4 15 -11 -1z"/>
<path d="M7007 1253 c-4 -3 -7 -11 -7 -17 0 -6 5 -5 12 2 6 6 9 14 7 17 -3 3
-9 2 -12 -2z"/>
<path d="M7315 1210 c-3 -5 -1 -10 4 -10 6 0 11 5 11 10 0 6 -2 10 -4 10 -3 0
-8 -4 -11 -10z"/>
<path d="M6426 1791 c-4 -7 -5 -15 -2 -18 9 -9 19 4 14 18 -4 11 -6 11 -12 0z"/>
<path d="M6651 1724 c0 -11 3 -14 6 -6 3 7 2 16 -1 19 -3 4 -6 -2 -5 -13z"/>
<path d="M6537 1703 c-25 -4 -28 -8 -23 -31 3 -15 8 -60 12 -100 l6 -73 44 7
c30 4 44 3 44 -5 0 -6 5 -11 11 -11 6 0 9 6 6 14 -3 8 1 22 8 33 19 24 19 97
0 132 -13 26 -44 43 -70 39 -5 0 -23 -3 -38 -5z m43 -28 c0 -8 -7 -15 -15 -15
-16 0 -20 12 -8 23 11 12 23 8 23 -8z"/>
<path d="M6806 1684 c-5 -14 -4 -15 9 -4 17 14 19 20 6 20 -5 0 -12 -7 -15
-16z"/>
<path d="M6356 1473 c-6 -14 -5 -15 5 -6 7 7 10 15 7 18 -3 3 -9 -2 -12 -12z"/>
<path d="M6436 1459 c-8 -43 10 -61 19 -19 4 18 3 36 -3 42 -6 6 -12 -2 -16
-23z"/>
<path d="M6631 1464 c0 -11 3 -14 6 -6 3 7 2 16 -1 19 -3 4 -6 -2 -5 -13z"/>
<path d="M6390 1365 c-8 -9 -8 -15 -2 -15 12 0 26 19 19 26 -2 2 -10 -2 -17
-11z"/>
<path d="M6777 1353 c-10 -9 -9 -23 2 -23 5 0 11 7 15 15 5 15 -5 20 -17 8z"/>
<path d="M6500 1219 c0 -5 5 -7 10 -4 6 3 10 8 10 11 0 2 -4 4 -10 4 -5 0 -10
-5 -10 -11z"/>
<path d="M5920 1744 c0 -8 5 -12 10 -9 6 3 10 10 10 16 0 5 -4 9 -10 9 -5 0
-10 -7 -10 -16z"/>
<path d="M5835 1740 c-3 -5 -1 -10 4 -10 6 0 11 5 11 10 0 6 -2 10 -4 10 -3 0
-8 -4 -11 -10z"/>
<path d="M5920 1713 c0 -6 -3 -18 -6 -27 -3 -9 -1 -16 5 -16 17 0 25 30 12 43
-8 8 -11 8 -11 0z"/>
<path d="M5812 1400 c0 -14 2 -19 5 -12 2 6 2 18 0 25 -3 6 -5 1 -5 -13z"/>
<path d="M5831 1184 c-1 -21 21 -39 33 -27 11 12 6 22 -8 17 -8 -3 -16 2 -19
13 -4 15 -5 15 -6 -3z"/>
<path d="M5985 1029 c-4 -11 -4 -23 0 -27 7 -7 25 17 25 36 0 20 -18 14 -25
-9z"/>
<path d="M5270 1609 c0 -5 5 -7 10 -4 6 3 10 8 10 11 0 2 -4 4 -10 4 -5 0 -10
-5 -10 -11z"/>
<path d="M5420 1353 c0 -22 2 -25 10 -13 13 20 13 40 0 40 -5 0 -10 -12 -10
-27z"/>
<path d="M5360 1218 c-12 -22 -12 -22 6 -6 10 10 15 20 12 24 -4 3 -12 -5 -18
-18z"/>
<path d="M5386 1125 c-9 -26 -7 -32 5 -12 6 10 9 21 6 23 -2 3 -7 -2 -11 -11z"/>
<path d="M5300 1079 c0 -5 5 -7 10 -4 6 3 10 8 10 11 0 2 -4 4 -10 4 -5 0 -10
-5 -10 -11z"/>
<path d="M5365 1059 c-10 -15 3 -25 16 -12 7 7 7 13 1 17 -6 3 -14 1 -17 -5z"/>
<path d="M5331 1044 c0 -11 3 -14 6 -6 3 7 2 16 -1 19 -3 4 -6 -2 -5 -13z"/>
<path d="M5280 1015 c0 -8 5 -15 10 -15 6 0 10 7 10 15 0 8 -4 15 -10 15 -5 0
-10 -7 -10 -15z"/>
<path d="M4956 1633 c-6 -14 -5 -15 5 -6 7 7 10 15 7 18 -3 3 -9 -2 -12 -12z"/>
<path d="M4990 1558 c0 -20 1 -21 20 -3 11 10 20 19 20 19 0 1 -9 2 -20 3 -14
1 -20 -4 -20 -19z"/>
<path d="M4661 1374 c0 -11 3 -14 6 -6 3 7 2 16 -1 19 -3 4 -6 -2 -5 -13z"/>
<path d="M3811 1584 c0 -11 3 -14 6 -6 3 7 2 16 -1 19 -3 4 -6 -2 -5 -13z"/>
<path d="M4242 1534 c-7 -8 -12 -20 -9 -27 2 -7 9 -2 16 11 15 28 11 36 -7 16z"/>
<path d="M4093 1490 c4 -12 -6 -14 -55 -12 l-60 4 7 -79 c10 -130 12 -133 49
-133 19 0 45 9 61 21 26 21 27 25 23 98 -2 42 -10 85 -17 96 -7 11 -10 13 -8
5z"/>
<path d="M3950 1411 c0 -25 6 -27 13 -6 4 8 2 17 -3 20 -6 4 -10 -3 -10 -14z"/>
<path d="M3880 1374 c0 -14 4 -23 10 -19 6 3 10 15 10 26 0 10 -4 19 -10 19
-5 0 -10 -12 -10 -26z"/>
<path d="M4196 1234 c-3 -9 -6 -23 -6 -32 1 -15 3 -14 15 2 17 22 20 46 6 46
-5 0 -12 -7 -15 -16z"/>
<path d="M3990 1209 c0 -5 5 -7 10 -4 6 3 10 8 10 11 0 2 -4 4 -10 4 -5 0 -10
-5 -10 -11z"/>
<path d="M3920 1079 c0 -5 5 -7 10 -4 6 3 10 8 10 11 0 2 -4 4 -10 4 -5 0 -10
-5 -10 -11z"/>
<path d="M3871 1044 c0 -11 3 -14 6 -6 3 7 2 16 -1 19 -3 4 -6 -2 -5 -13z"/>
<path d="M3940 921 c0 -5 -3 -17 -7 -27 -4 -11 -3 -15 4 -11 6 4 13 1 15 -5 3
-7 5 2 5 20 0 17 -4 32 -9 32 -4 0 -8 -4 -8 -9z"/>
<path d="M3312 1530 c0 -14 2 -19 5 -12 2 6 2 18 0 25 -3 6 -5 1 -5 -13z"/>
<path d="M3375 1416 c-33 -33 -40 -98 -26 -246 13 -132 23 -189 42 -236 7 -16
11 -40 10 -54 -1 -22 0 -23 9 -7 6 9 23 17 39 17 16 0 36 9 47 21 17 18 19 38
20 150 1 188 -27 335 -69 364 -30 21 -44 19 -72 -9z m70 -109 c0 -26 -20 -25
-23 2 -3 16 1 22 10 19 7 -3 13 -12 13 -21z m10 -205 c0 -18 -20 -15 -23 4 -3
10 1 15 10 12 7 -3 13 -10 13 -16z"/>
<path d="M3287 1404 c-4 -4 -7 -17 -7 -28 1 -19 1 -20 11 -3 11 19 8 43 -4 31z"/>
<path d="M3641 1214 c0 -11 3 -14 6 -6 3 7 2 16 -1 19 -3 4 -6 -2 -5 -13z"/>
<path d="M3661 1182 c-7 -13 -11 -26 -8 -28 8 -8 29 25 25 38 -3 8 -9 4 -17
-10z"/>
<path d="M3310 1140 c0 -5 5 -10 11 -10 5 0 7 5 4 10 -3 6 -8 10 -11 10 -2 0
-4 -4 -4 -10z"/>
<path d="M3250 1095 c-7 -9 -10 -18 -7 -21 10 -11 37 5 37 21 0 19 -14 19 -30
0z"/>
<path d="M3520 842 c0 -10 -7 -28 -16 -40 -8 -12 -11 -22 -5 -22 5 0 13 9 16
20 3 11 11 20 16 20 5 0 9 9 9 20 0 11 -4 20 -10 20 -5 0 -10 -8 -10 -18z"/>
<path d="M3427 843 c-4 -3 -7 -11 -7 -17 0 -6 5 -5 12 2 6 6 9 14 7 17 -3 3
-9 2 -12 -2z"/>
<path d="M2944 1436 c-10 -27 2 -43 14 -19 8 14 9 24 2 28 -6 3 -13 -1 -16 -9z"/>
<path d="M2730 1399 c0 -11 4 -18 10 -14 5 3 7 12 3 20 -7 21 -13 19 -13 -6z"/>
<path d="M2877 1013 c-4 -3 -7 -13 -7 -21 0 -12 3 -12 15 -2 8 7 15 16 15 21
0 11 -14 12 -23 2z"/>
</g>
</svg>
